<svg width="300" height="82" viewBox="0 0 300 82" fill="none" xmlns="http://www.w3.org/2000/svg" role="img" aria-labelledby="title desc">
  <title id="title">podePedir</title>
  <desc id="desc">Logo podePedir com icone de cloche verde e wordmark branco e verde.</desc>
  <g>
    <rect x="2" y="6" width="70" height="70" rx="20" fill="#1A6B3B"/>
    <path d="M26 56H58" stroke="#FFFFFF" stroke-width="7" stroke-linecap="round"/>
    <path d="M29 55C33.5 43.5 44.5 33.7 55 31C61.9 35.5 66.8 44.1 70 55H29Z" fill="#FFFFFF"/>
    <path d="M51 31C51 36.4 47.2 39.5 42 38.2C42.6 33.8 45.7 30.5 51 31Z" fill="#FFFFFF"/>
    <path d="M28 55H70" stroke="#FFFFFF" stroke-width="3.5" stroke-linecap="round"/>
    <path d="M32 25C28.6 18.8 31.7 15.2 34 12" stroke="#2B8B52" stroke-width="3.5" stroke-linecap="round"/>
    <path d="M43 23C39.6 16.8 42.7 13.2 45 10" stroke="#2B8B52" stroke-width="3.5" stroke-linecap="round"/>
    <path d="M54 25C50.6 18.8 53.7 15.2 56 12" stroke="#2B8B52" stroke-width="3.5" stroke-linecap="round"/>
  </g>
  <g>
    <text x="88" y="48" fill="#FFFFFF" font-family="Inter, Arial, sans-serif" font-size="32" font-weight="900">pode</text>
    <text x="168" y="48" fill="#27AE51" font-family="Inter, Arial, sans-serif" font-size="32" font-weight="900">Pedir</text>
    <text x="90" y="66" fill="#D6EAD9" fill-opacity="0.72" font-family="Inter, Arial, sans-serif" font-size="12" font-weight="700">Peca com facilidade. Receba com prazer.</text>
  </g>
</svg>
